<?xml version="1.0" encoding="UTF-8"?>
<svg id="Layer_1" xmlns="http://www.w3.org/2000/svg" version="1.1" viewBox="0 0 253.3 44">
  <!-- Generator: Adobe Illustrator 29.1.0, SVG Export Plug-In . SVG Version: 2.1.0 Build 142)  -->
  <defs>
    <style>
      .st0 {
        fill: #fff;
      }

      .st1 {
        isolation: isolate;
      }

      .st2 {
        fill: #69e584;
      }
    </style>
  </defs>
  <g id="Jazeel_Wayanad" class="st1">
    <g class="st1">
      <path class="st2" d="M7.4,32.4c-1.4,0-2.7-.3-3.9-.8-1.2-.5-2.2-1.3-2.9-2.3l2.7-3.2c.6.8,1.2,1.3,1.8,1.7.6.4,1.3.6,2.1.6,2,0,3-1.2,3-3.5v-10H2.7v-3.9h12.2v13.6c0,2.6-.6,4.5-1.9,5.8-1.3,1.3-3.2,1.9-5.6,1.9Z"/>
    </g>
    <g class="st1">
      <path class="st0" d="M24.3,32.3c-1.3,0-2.3-.2-3.2-.6-.9-.4-1.6-1-2.1-1.8-.5-.7-.7-1.6-.7-2.5s.2-1.8.7-2.5c.5-.7,1.2-1.3,2.2-1.7,1-.4,2.3-.6,4-.6h4.3v2.7h-3.8c-1.1,0-1.9.2-2.3.5-.4.4-.6.8-.6,1.3s.2,1.1.7,1.4c.5.3,1.1.5,1.9.5s1.5-.2,2.1-.6c.6-.4,1.1-.9,1.3-1.6l.7,2.2c-.3,1-1,1.8-1.9,2.4-.9.5-2.1.8-3.5.8ZM29.3,32.1v-3.1l-.3-.7v-5.6c0-1-.3-1.8-.9-2.3-.6-.6-1.5-.8-2.8-.8s-1.7.1-2.5.4c-.8.3-1.5.6-2.1,1.1l-1.7-3.3c.9-.6,1.9-1.1,3.2-1.4s2.5-.5,3.8-.5c2.5,0,4.4.6,5.7,1.7,1.4,1.2,2,3,2,5.4v9.2h-4.4Z"/>
      <path class="st0" d="M36.8,32.1v-2.8l9.5-11.3.8,1.6h-10.1v-3.6h13.9v2.8l-9.5,11.3-.8-1.6h10.6v3.6h-14.4Z"/>
      <path class="st0" d="M61.9,32.3c-1.8,0-3.5-.4-4.8-1.1-1.4-.7-2.5-1.7-3.2-3-.8-1.2-1.1-2.7-1.1-4.3s.4-3.1,1.1-4.3c.7-1.2,1.8-2.2,3.1-2.9,1.3-.7,2.8-1.1,4.4-1.1s3,.3,4.3,1c1.3.7,2.3,1.6,3,2.9.7,1.2,1.1,2.7,1.1,4.5s0,.4,0,.6c0,.2,0,.4,0,.6h-13.1v-2.7h10.6l-1.8.8c0-.8-.2-1.6-.5-2.2s-.8-1.1-1.4-1.5-1.3-.5-2.1-.5-1.5.2-2.1.5-1.1.8-1.4,1.5-.5,1.4-.5,2.2v.7c0,.9.2,1.7.6,2.3.4.7.9,1.2,1.6,1.5.7.4,1.5.5,2.5.5s1.6-.1,2.3-.4c.7-.3,1.2-.6,1.8-1.2l2.5,2.7c-.7.8-1.7,1.5-2.8,1.9s-2.4.7-3.9.7Z"/>
      <path class="st0" d="M80.8,32.3c-1.8,0-3.5-.4-4.8-1.1-1.4-.7-2.5-1.7-3.2-3-.8-1.2-1.1-2.7-1.1-4.3s.4-3.1,1.1-4.3c.7-1.2,1.8-2.2,3.1-2.9,1.3-.7,2.8-1.1,4.4-1.1s3,.3,4.3,1c1.3.7,2.3,1.6,3,2.9s1.1,2.7,1.1,4.5,0,.4,0,.6c0,.2,0,.4,0,.6h-13.1v-2.7h10.6l-1.8.8c0-.8-.2-1.6-.5-2.2-.3-.6-.8-1.1-1.4-1.5-.6-.3-1.3-.5-2.1-.5s-1.5.2-2.1.5c-.6.3-1.1.8-1.4,1.5s-.5,1.4-.5,2.2v.7c0,.9.2,1.7.6,2.3.4.7.9,1.2,1.6,1.5.7.4,1.5.5,2.5.5s1.6-.1,2.3-.4,1.2-.6,1.8-1.2l2.5,2.7c-.7.8-1.7,1.5-2.8,1.9s-2.4.7-3.9.7Z"/>
      <path class="st0" d="M91.7,32.1V9.8h4.7v22.2h-4.7Z"/>
      <path class="st2" d="M114.6,32.1l-6.9-21h5l6,18.6h-2.5l6.2-18.6h4.5l6,18.6h-2.4l6.1-18.6h4.6l-6.9,21h-5.2l-5.3-16.3h1.4l-5.5,16.3h-5.2Z"/>
      <path class="st0" d="M147.4,32.3c-1.3,0-2.3-.2-3.2-.6-.9-.4-1.6-1-2.1-1.8-.5-.7-.7-1.6-.7-2.5s.2-1.8.7-2.5c.5-.7,1.2-1.3,2.2-1.7,1-.4,2.3-.6,4-.6h4.3v2.7h-3.8c-1.1,0-1.9.2-2.3.5-.4.4-.6.8-.6,1.3s.2,1.1.7,1.4,1.1.5,1.9.5,1.5-.2,2.1-.6c.6-.4,1.1-.9,1.3-1.6l.7,2.2c-.3,1-1,1.8-1.9,2.4-.9.5-2.1.8-3.5.8ZM152.3,32.1v-3.1l-.3-.7v-5.6c0-1-.3-1.8-.9-2.3s-1.5-.8-2.8-.8-1.7.1-2.5.4c-.8.3-1.5.6-2.1,1.1l-1.7-3.3c.9-.6,1.9-1.1,3.2-1.4s2.5-.5,3.8-.5c2.5,0,4.4.6,5.7,1.7,1.4,1.2,2,3,2,5.4v9.2h-4.4Z"/>
      <path class="st0" d="M162.7,38.1c-.8,0-1.7-.1-2.5-.4s-1.5-.6-2-1.1l1.7-3.3c.4.3.8.6,1.2.7.5.2.9.3,1.4.3.7,0,1.2-.2,1.6-.5.4-.3.7-.8,1.1-1.5l.8-2,.4-.5,5.8-13.9h4.5l-7.3,17.1c-.5,1.3-1.1,2.3-1.8,3.1-.7.7-1.4,1.3-2.2,1.6s-1.7.4-2.7.4ZM165.4,32.7l-7.2-16.8h4.8l5.6,13.5-3.2,3.3Z"/>
      <path class="st0" d="M183,32.3c-1.3,0-2.3-.2-3.2-.6-.9-.4-1.6-1-2.1-1.8-.5-.7-.7-1.6-.7-2.5s.2-1.8.7-2.5c.5-.7,1.2-1.3,2.2-1.7,1-.4,2.3-.6,4-.6h4.3v2.7h-3.8c-1.1,0-1.9.2-2.3.5-.4.4-.6.8-.6,1.3s.2,1.1.7,1.4,1.1.5,1.9.5,1.5-.2,2.1-.6c.6-.4,1.1-.9,1.3-1.6l.7,2.2c-.3,1-1,1.8-1.9,2.4-.9.5-2.1.8-3.5.8ZM187.9,32.1v-3.1l-.3-.7v-5.6c0-1-.3-1.8-.9-2.3s-1.5-.8-2.8-.8-1.7.1-2.5.4c-.8.3-1.5.6-2.1,1.1l-1.7-3.3c.9-.6,1.9-1.1,3.2-1.4s2.5-.5,3.8-.5c2.5,0,4.4.6,5.7,1.7,1.4,1.2,2,3,2,5.4v9.2h-4.4Z"/>
      <path class="st0" d="M206.3,15.7c1.3,0,2.4.3,3.4.8,1,.5,1.8,1.3,2.4,2.3s.9,2.4.9,4v9.2h-4.7v-8.5c0-1.3-.3-2.3-.9-2.9-.6-.6-1.4-.9-2.4-.9s-1.4.2-2,.5c-.6.3-1,.8-1.4,1.4-.3.6-.5,1.5-.5,2.5v8h-4.7V15.9h4.5v4.5l-.8-1.3c.6-1.1,1.4-1.9,2.5-2.5,1.1-.6,2.3-.9,3.7-.9Z"/>
      <path class="st0" d="M222.2,32.3c-1.3,0-2.3-.2-3.2-.6-.9-.4-1.6-1-2.1-1.8-.5-.7-.7-1.6-.7-2.5s.2-1.8.7-2.5c.5-.7,1.2-1.3,2.2-1.7,1-.4,2.3-.6,4-.6h4.3v2.7h-3.8c-1.1,0-1.9.2-2.3.5-.4.4-.6.8-.6,1.3s.2,1.1.7,1.4,1.1.5,1.9.5,1.5-.2,2.1-.6c.6-.4,1.1-.9,1.3-1.6l.7,2.2c-.3,1-1,1.8-1.9,2.4-.9.5-2.1.8-3.5.8ZM227.1,32.1v-3.1l-.3-.7v-5.6c0-1-.3-1.8-.9-2.3s-1.5-.8-2.8-.8-1.7.1-2.5.4c-.8.3-1.5.6-2.1,1.1l-1.7-3.3c.9-.6,1.9-1.1,3.2-1.4s2.5-.5,3.8-.5c2.5,0,4.4.6,5.7,1.7,1.4,1.2,2,3,2,5.4v9.2h-4.4Z"/>
      <path class="st0" d="M242.8,32.3c-1.5,0-2.9-.3-4.1-1s-2.2-1.7-2.9-2.9c-.7-1.2-1.1-2.7-1.1-4.4s.4-3.2,1.1-4.4c.7-1.2,1.7-2.2,2.9-2.9,1.2-.7,2.6-1,4.1-1s2.5.3,3.6.9c1,.6,1.8,1.5,2.4,2.7.6,1.2.8,2.8.8,4.7s-.3,3.4-.8,4.7c-.5,1.2-1.3,2.1-2.3,2.7s-2.2.9-3.6.9ZM243.6,28.5c.8,0,1.4-.2,2.1-.5.6-.4,1.1-.9,1.5-1.5.4-.7.6-1.5.6-2.4s-.2-1.7-.6-2.4c-.4-.7-.9-1.2-1.5-1.5-.6-.4-1.3-.5-2.1-.5s-1.5.2-2.1.5c-.6.4-1.1.9-1.5,1.5-.4.7-.6,1.5-.6,2.4s.2,1.7.6,2.4c.4.7.9,1.2,1.5,1.5s1.3.5,2.1.5ZM247.8,32.1v-8.1c0,0-.2-4.8-.2-4.8v-9.4h4.7v22.2h-4.5Z"/>
    </g>
  </g>
</svg>